<?xml version="1.0" encoding="utf-8"?>
<!-- Generator: Adobe Illustrator 17.0.0, SVG Export Plug-In . SVG Version: 6.00 Build 0)  -->
<!DOCTYPE svg PUBLIC "-//W3C//DTD SVG 1.1//EN" "http://www.w3.org/Graphics/SVG/1.1/DTD/svg11.dtd">
<svg version="1.1" id="Layer_1" xmlns="http://www.w3.org/2000/svg" xmlns:xlink="http://www.w3.org/1999/xlink" x="0px" y="0px"
	 width="100px" height="100px" viewBox="0 0 100 100" enable-background="new 0 0 100 100" xml:space="preserve">
<g>
	<g>
		<g>
			<path fill="#0071BC" d="M19.453,98.116V85.854H7.82v12.262H4.184V72.743H7.82V82.91h11.633V72.743h3.635v25.373H19.453z"/>
			<path fill="#0071BC" d="M26.997,88.798c0-2.863,0.808-5.175,2.426-6.937c1.617-1.76,3.747-2.64,6.389-2.64
				c2.787,0,4.95,0.845,6.489,2.536c1.539,1.692,2.309,4.039,2.309,7.04c0,2.99-0.788,5.348-2.363,7.075
				c-1.575,1.725-3.72,2.589-6.435,2.589c-2.775,0-4.939-0.871-6.489-2.615C27.771,94.104,26.997,91.754,26.997,88.798z
				 M30.633,88.798c0,4.653,1.726,6.98,5.18,6.98c1.612,0,2.875-0.623,3.79-1.87c0.914-1.247,1.372-2.951,1.372-5.11
				c0-4.595-1.721-6.893-5.162-6.893c-1.575,0-2.833,0.612-3.771,1.836C31.101,84.965,30.633,86.65,30.633,88.798z"/>
			<path fill="#0071BC" d="M70.785,98.116V86.373c0-2.921-1.326-4.381-3.98-4.381c-0.836,0-1.618,0.245-2.346,0.735
				c-0.727,0.491-1.224,1.048-1.489,1.672v13.717h-3.455v-13.18c0-0.911-0.36-1.631-1.081-2.155
				c-0.72-0.526-1.675-0.788-2.863-0.788c-0.691,0-1.427,0.254-2.208,0.762c-0.782,0.508-1.337,1.067-1.663,1.679v13.682h-3.455
				V79.568H50.5l1.146,2.148c1.333-1.663,2.999-2.494,4.999-2.494c2.786,0,4.737,0.825,5.852,2.476
				c0.388-0.704,1.109-1.293,2.164-1.767c1.054-0.473,2.138-0.709,3.254-0.709c2.01,0,3.568,0.568,4.671,1.705
				c1.103,1.138,1.655,2.734,1.655,4.789v12.4H70.785z"/>
			<path fill="#0071BC" d="M95.544,89.161H81.511c0,2.172,0.623,3.84,1.872,5.006c1.103,1.016,2.521,1.524,4.253,1.524
				c1.975,0,3.623-0.548,4.944-1.645l1.454,2.372c-0.533,0.508-1.352,0.947-2.455,1.316c-1.381,0.485-2.92,0.727-4.616,0.727
				c-2.449,0-4.527-0.79-6.235-2.373c-1.903-1.742-2.853-4.087-2.853-7.03c0-3.06,0.975-5.514,2.926-7.361
				c1.745-1.651,3.81-2.476,6.198-2.476c2.775,0,4.951,0.744,6.526,2.233c1.527,1.432,2.29,3.332,2.29,5.697
				C95.816,87.881,95.724,88.55,95.544,89.161z M87.163,81.992c-1.539,0-2.83,0.473-3.872,1.419
				c-0.994,0.901-1.556,2.022-1.69,3.361H92.38c0-1.328-0.436-2.436-1.309-3.325C90.113,82.477,88.811,81.992,87.163,81.992z"/>
		</g>
	</g>
	<path fill="#0071BC" d="M83.146,26.973l-12.684-9.225V2.488h-9.062v8.67L48.176,1.538L13.208,26.972l5.498,6.864l3.768-2.74v31.519
		h51.408V31.097l3.766,2.738L83.146,26.973z M68.848,57.818H57.239V39.591H39.117v18.227H27.509V28.043l20.67-15.038l20.669,15.038
		V57.818z"/>
</g>
</svg>
